<?xml version="1.0" standalone="no"?>
<!DOCTYPE svg PUBLIC "-//W3C//DTD SVG 20010904//EN"
 "http://www.w3.org/TR/2001/REC-SVG-20010904/DTD/svg10.dtd">
<svg version="1.0" xmlns="http://www.w3.org/2000/svg"
 width="128.000000pt" height="128.000000pt" viewBox="0 0 128.000000 128.000000"
 preserveAspectRatio="xMidYMid meet">

<g transform="translate(0.000000,128.000000) scale(0.100000,-0.100000)"
fill="#000000" stroke="none">
<path d="M553 1270 c-158 -37 -283 -185 -291 -347 -6 -105 39 -222 160 -417
64 -102 209 -306 218 -306 10 0 160 211 223 315 124 205 161 302 155 408 -8
161 -123 301 -280 343 -57 15 -133 17 -185 4z m172 -283 c109 -109 -22 -276
-153 -197 -70 43 -78 136 -17 197 29 29 39 33 85 33 46 0 56 -4 85 -33z"/>
<path d="M155 532 c-177 -116 -203 -249 -72 -369 228 -210 849 -216 1109 -11
44 34 88 119 88 167 -1 81 -67 165 -174 221 l-59 31 -33 -58 -33 -58 48 -21
c64 -28 121 -80 121 -109 0 -35 -46 -82 -110 -115 -174 -88 -487 -106 -697
-40 -125 39 -213 101 -213 150 0 34 53 85 123 119 l47 23 -30 51 c-16 29 -35
53 -43 55 -7 1 -40 -15 -72 -36z"/>
</g>
</svg>
